<svg xmlns="http://www.w3.org/2000/svg" xmlns:xlink="http://www.w3.org/1999/xlink" width="450" height="450" viewBox="0 0 543 500">
    <defs>
      <clipPath id="clip-path" transform="translate(43)">
        <path d="M249.5,285h-85V183.5A42.5,42.5,0,0,1,207,141h0a42.5,42.5,0,0,1,42.5,42.5Z" style="fill: none"/>
      </clipPath>
    </defs>
    <g id="BACKGROUND">
      <rect x="43" width="500" height="500" style="fill: #fff"/>
      <g>
        <g style="opacity: 0.41000000000000003">
          <path d="M492.72,293a138,138,0,0,0-.63-23.53c-4.15-36.65-23-71.21-50.63-95.6-9.88-8.7-21.11-16.49-27.54-28-10.82-19.34-10-41.56-23.43-60.66a113.55,113.55,0,0,0-55.14-41.68C269.46,20.7,177.22,57.87,185.53,137.25c0,.28.06.7.09,1.22a28.89,28.89,0,0,1-28.3,30.75C96.53,170.66,44.2,217.53,33,276.89c-7.2,38.18,4.59,80,32.52,107,20.85,20.16,48.82,31.24,76.81,38.85,56.11,15.26,115.16,18.46,173,12.62,54.16-5.46,111.28-21,146.31-62.69C480.33,350.48,491,322,492.72,293Z" transform="translate(43)" style="fill: #e1e2fe"/>
        </g>
        <g style="opacity: 0.41000000000000003">
          <path d="M445.23,300.3a102.53,102.53,0,0,0-.47-17.52c-3.09-27.29-17.09-53-37.7-71.18-7.35-6.47-15.72-12.28-20.5-20.83-8.06-14.4-7.45-31-17.45-45.17a84.59,84.59,0,0,0-41.05-31c-49.06-17-117.74,10.68-111.55,69.78,0,.21,0,.52.07.91a21.51,21.51,0,0,1-21.08,22.89c-45.26,1.08-84.22,36-92.55,80.17-5.37,28.43,3.41,59.59,24.21,79.7,15.52,15,36.35,23.26,57.18,28.92,41.78,11.37,85.74,13.75,128.82,9.4,40.32-4.06,82.86-15.66,108.94-46.68C436,343.11,444,321.89,445.23,300.3Z" transform="translate(43)" style="fill: #e1e2fe"/>
        </g>
        <g style="opacity: 0.31">
          <circle cx="462.35" cy="103.36" r="19.73" transform="translate(105.33 357.2) rotate(-45)" style="fill: #e1e2fe"/>
        </g>
        <g style="opacity: 0.31">
          <path d="M434.52,76.77a6.86,6.86,0,1,1-6.86-6.86A6.86,6.86,0,0,1,434.52,76.77Z" transform="translate(43)" style="fill: #e1e2fe"/>
        </g>
        <g style="opacity: 0.31">
          <circle cx="154.66" cy="78.37" r="9.19" transform="translate(36.38 142) rotate(-48.4)" style="fill: #e1e2fe"/>
        </g>
        <g style="opacity: 0.31">
          <circle cx="132.39" cy="446.05" r="20.93" style="fill: #e1e2fe"/>
        </g>
      </g>
      <g>
        <g>
          <path d="M404.74,34.61a12,12,0,0,0-2.38,16.75c4,5.28,14.22,10,19.51,6s-.65-12.46-1.58-19C419,29.28,410,30.64,404.74,34.61Z" transform="translate(43)" style="fill: #ecf1f7;opacity: 0.47000000000000003"/>
          <path d="M109.66,71a22.22,22.22,0,0,0-31-5.33c-10,7.08-19.38,25.87-12.3,35.89s23.17-.53,35.37-1.88C118.77,97.76,116.74,81,109.66,71Z" transform="translate(43)" style="fill: #e1e2fe;opacity: 0.47000000000000003"/>
        </g>
        <g>
          <path d="M472.58,358.33c6.25-10,7.82-22.31,6.52-34A112.23,112.23,0,0,0,469.28,290c-4.71-10-11.53-18.94-13.47-30.09-2.57-14.73,4.15-28.88,5.71-43.33,3.11-28.77-16.33-54.11-40.44-67.8-19.59-11.12-42.55-15.29-65.07-15-20.27.27-40.5,3.86-60.14,8.7-18.93,4.66-37.43,10.8-57.27,8.86-16.5-1.61-31.36-8.46-46.73-13.57-36.68-12.2-81.12-13.93-114.67,4.65A92.49,92.49,0,0,0,33.92,194.5c-4.9,15.24-6.35,32.77-2.76,48.2,4,17.33,11.48,32.6,9.51,50.86-1.61,15-7.12,29.59-6.63,44.79.42,13.07,14.64,31.84,29.31,36.7.8.26-.59,1.35,0,1.95H451.18C459.61,372.46,467.48,366.43,472.58,358.33Z" transform="translate(43)" style="fill: #e1e2fe;opacity: 0.47000000000000003"/>
          <path d="M474.53,313.94C469.94,285,439.32,281.07,446,262.42c8.41-23.62,8-50.08-2.21-73.1-4.92-11.09-12.11-21.4-21.93-28.53-15.14-11-35-13.4-53.63-12-27.77,2.07-57.06,13.62-85,10.47-15.4-1.74-20.11-17.75-28.06-28.32a91.51,91.51,0,0,0-34.8-27.59c-24.95-11.5-54.9-12.59-80.4-2.16-27.23,11.14-51,38.35-49.4,69.12.72,14.23,6.65,28.37,3.91,42.35C91,230.21,77.25,246.21,67.27,260.51A106.61,106.61,0,0,0,63.56,377H457.88C462.92,368.21,481.57,358.33,474.53,313.94Z" transform="translate(43)" style="fill: #e1e2fe;opacity: 0.81"/>
        </g>
      </g>
      <circle cx="477.52" cy="459.44" r="4.5" style="fill: #3e479b;opacity: 0.58"/>
      <circle cx="439.92" cy="446.05" r="3.5" style="fill: #f7a9b4"/>
      <circle cx="182.59" cy="449.55" r="3.5" style="fill: #f7a9b4"/>
      <circle cx="488.41" cy="419.47" r="3.5" style="fill: #f7a9b4"/>
      <circle cx="495.89" cy="45.88" r="3.5" style="fill: #f7a9b4"/>
      <circle cx="112.6" cy="41.38" r="4.5" style="fill: #ef929c;opacity: 0.58"/>
      <circle cx="164.29" cy="36.88" r="3.5" style="fill: #3e479b;opacity: 0.58"/>
      <circle cx="91.04" cy="411.88" r="3.5" style="fill: #3e479b;opacity: 0.58"/>
      <circle cx="1.5" cy="129.5" r="1.5" style="fill: #3e479b;opacity: 0.58"/>
      <path d="M330.46,62.22a5.4,5.4,0,1,1-4.16-6.42A5.39,5.39,0,0,1,330.46,62.22Z" transform="translate(43)" style="fill: #ef929c;opacity: 0.58"/>
      <path d="M287.36,80A1.8,1.8,0,1,1,286,77.89,1.8,1.8,0,0,1,287.36,80Z" transform="translate(43)" style="fill: #3e479b;opacity: 0.58"/>
    </g>
    <g id="OBJECTS">
      <g>
        <g>
          <rect x="216.37" y="57.58" width="113.03" height="120.42" rx="16.06" style="fill: #fff"/>
          <rect x="216.37" y="57.58" width="113.03" height="120.42" rx="16.06" style="fill: #b9b6ff;opacity: 0.39"/>
          <path d="M260.58,57.61v0H169.8A18.92,18.92,0,0,0,150.88,76.5v7.19h91.81V76.5A18.92,18.92,0,0,1,260.58,57.61Z" transform="translate(43)" style="fill: #b9b6ff"/>
          <path d="M257.12,97.5H195a1,1,0,0,1,0-2h62.12a1,1,0,0,1,0,2Z" transform="translate(43)" style="fill: #fff"/>
          <path d="M257.12,123.65H195a1,1,0,0,1,0-2h62.12a1,1,0,0,1,0,2Z" transform="translate(43)" style="fill: #fff"/>
          <path d="M228,110.59H195a1,1,0,0,1,0-2h33a1,1,0,0,1,0,2Z" transform="translate(43)" style="fill: #fff"/>
          <path d="M264,110.59H236a1,1,0,0,1,0-2h28a1,1,0,0,1,0,2Z" transform="translate(43)" style="fill: #fff"/>
        </g>
        <g>
          <g style="opacity: 0.81">
            <path d="M254.05,347.19H231a1,1,0,1,1,0-2h23.08a1,1,0,0,1,0,2Z" transform="translate(43)" style="fill: #fff"/>
            <path d="M254.05,371.19H231a1,1,0,1,1,0-2h23.08a1,1,0,0,1,0,2Z" transform="translate(43)" style="fill: #fff"/>
            <g>
              <g>
                <path d="M271.69,395.43h-143a2.71,2.71,0,0,1-2.71-2.71V318.28a2.71,2.71,0,0,1,2.71-2.71h143a2.72,2.72,0,0,1,2.72,2.71v74.44A2.72,2.72,0,0,1,271.69,395.43Zm-143-77.86a.71.71,0,0,0-.71.71v74.44a.71.71,0,0,0,.71.71h143a.71.71,0,0,0,.72-.71V318.28a.71.71,0,0,0-.72-.71Z" transform="translate(43)" style="fill: #fff"/>
                <path d="M271.69,395.43h-143a2.71,2.71,0,0,1-2.71-2.71V318.28a2.71,2.71,0,0,1,2.71-2.71h143a2.72,2.72,0,0,1,2.72,2.71v74.44A2.72,2.72,0,0,1,271.69,395.43Zm-143-77.86a.71.71,0,0,0-.71.71v74.44a.71.71,0,0,0,.71.71h143a.71.71,0,0,0,.72-.71V318.28a.71.71,0,0,0-.72-.71Z" transform="translate(43)" style="fill: #fff;opacity: 0.66"/>
              </g>
              <rect x="185.3" y="328.86" width="38.68" height="51.45" rx="1.23" style="fill: #fff"/>
              <path d="M254.05,335.54h-63.5a1,1,0,0,1,0-2h63.5a1,1,0,0,1,0,2Z" transform="translate(43)" style="fill: #fff"/>
              <path d="M254.05,358.84h-63.5a1,1,0,0,1,0-2h63.5a1,1,0,0,1,0,2Z" transform="translate(43)" style="fill: #fff"/>
              <path d="M224.79,347.19H190.55a1,1,0,0,1,0-2h34.24a1,1,0,1,1,0,2Z" transform="translate(43)" style="fill: #fff"/>
              <path d="M224.79,371.19H190.55a1,1,0,0,1,0-2h34.24a1,1,0,1,1,0,2Z" transform="translate(43)" style="fill: #fff"/>
              <path d="M213.64,382.31H190.55a1,1,0,0,1,0-2h23.09a1,1,0,1,1,0,2Z" transform="translate(43)" style="fill: #fff"/>
            </g>
          </g>
          <g style="opacity: 0.81">
            <path d="M452.89,219.11H429.8a1,1,0,0,1,0-2h23.09a1,1,0,0,1,0,2Z" transform="translate(43)" style="fill: #fff"/>
            <path d="M452.89,243.11H429.8a1,1,0,0,1,0-2h23.09a1,1,0,0,1,0,2Z" transform="translate(43)" style="fill: #fff"/>
            <g>
              <g>
                <path d="M470.53,267.35h-143a2.72,2.72,0,0,1-2.71-2.72V190.2a2.72,2.72,0,0,1,2.71-2.71h143a2.71,2.71,0,0,1,2.71,2.71v74.43A2.71,2.71,0,0,1,470.53,267.35Zm-143-77.86a.71.71,0,0,0-.71.71v74.43a.71.71,0,0,0,.71.72h143a.71.71,0,0,0,.71-.72V190.2a.71.71,0,0,0-.71-.71Z" transform="translate(43)" style="fill: #fff"/>
                <path d="M470.53,267.35h-143a2.72,2.72,0,0,1-2.71-2.72V190.2a2.72,2.72,0,0,1,2.71-2.71h143a2.71,2.71,0,0,1,2.71,2.71v74.43A2.71,2.71,0,0,1,470.53,267.35Zm-143-77.86a.71.71,0,0,0-.71.71v74.43a.71.71,0,0,0,.71.72h143a.71.71,0,0,0,.71-.72V190.2a.71.71,0,0,0-.71-.71Z" transform="translate(43)" style="fill: #fff;opacity: 0.66"/>
              </g>
              <rect x="384.14" y="200.78" width="38.68" height="51.45" rx="1.23" style="fill: #fff"/>
              <path d="M452.89,207.46h-63.5a1,1,0,0,1,0-2h63.5a1,1,0,0,1,0,2Z" transform="translate(43)" style="fill: #fff"/>
              <path d="M452.89,230.76h-63.5a1,1,0,0,1,0-2h63.5a1,1,0,0,1,0,2Z" transform="translate(43)" style="fill: #fff"/>
              <path d="M423.63,219.11H389.39a1,1,0,0,1,0-2h34.24a1,1,0,0,1,0,2Z" transform="translate(43)" style="fill: #fff"/>
              <path d="M423.63,243.11H389.39a1,1,0,0,1,0-2h34.24a1,1,0,0,1,0,2Z" transform="translate(43)" style="fill: #fff"/>
              <path d="M412.48,254.23H389.39a1,1,0,0,1,0-2h23.09a1,1,0,0,1,0,2Z" transform="translate(43)" style="fill: #fff"/>
            </g>
          </g>
          <g>
            <rect x="367.59" y="282.7" width="90.91" height="37.14" rx="3.33" style="fill: #b9b6ff"/>
            <g>
              <g>
                <rect x="384.73" y="311.99" width="102.54" height="38.45" rx="5.07" style="fill: #fff"/>
                <rect x="384.73" y="311.99" width="102.54" height="38.45" rx="5.07" style="fill: #8f8fff;opacity: 0.74"/>
              </g>
              <g>
                <path d="M411.72,335.66a4.4,4.4,0,1,1,4.39-4.39A4.4,4.4,0,0,1,411.72,335.66Zm0-7.79a3.4,3.4,0,1,0,3.39,3.4A3.4,3.4,0,0,0,411.72,327.87Z" transform="translate(43)" style="fill: #fff"/>
                <path d="M393.34,335.66a4.4,4.4,0,1,1,4.4-4.39A4.4,4.4,0,0,1,393.34,335.66Zm0-7.79a3.4,3.4,0,1,0,3.4,3.4A3.4,3.4,0,0,0,393.34,327.87Z" transform="translate(43)" style="fill: #fff"/>
                <path d="M376.21,335.66a4.4,4.4,0,1,1,4.39-4.39A4.4,4.4,0,0,1,376.21,335.66Zm0-7.79a3.4,3.4,0,1,0,3.39,3.4A3.4,3.4,0,0,0,376.21,327.87Z" transform="translate(43)" style="fill: #fff"/>
              </g>
            </g>
          </g>
          <g>
            <path d="M85.34,228.1h-1a.5.5,0,0,1,0-1h1a.5.5,0,0,1,0,1Z" transform="translate(43)" style="fill: #fff"/>
            <path d="M372.8,393h-2a.5.5,0,0,1-.5-.5.51.51,0,0,1,.5-.5h2a.5.5,0,0,1,.5.5A.5.5,0,0,1,372.8,393ZM351,393h-2a.5.5,0,0,1-.5-.5.5.5,0,0,1,.5-.5h2a.5.5,0,0,1,.5.5A.5.5,0,0,1,351,393Zm-21.78,0h-2a.5.5,0,0,1-.5-.5.5.5,0,0,1,.5-.5h2a.51.51,0,0,1,.5.5A.5.5,0,0,1,329.24,393Zm-21.79,0h-2a.5.5,0,0,1-.5-.5.51.51,0,0,1,.5-.5h2a.5.5,0,0,1,.5.5A.5.5,0,0,1,307.45,393Zm-21.78,0h-2a.5.5,0,0,1-.5-.5.5.5,0,0,1,.5-.5h2a.5.5,0,0,1,.5.5A.5.5,0,0,1,285.67,393Zm-21.78,0h-2a.5.5,0,0,1-.5-.5.5.5,0,0,1,.5-.5h2a.51.51,0,0,1,.5.5A.5.5,0,0,1,263.89,393Zm-21.79,0h-2a.5.5,0,0,1-.5-.5.51.51,0,0,1,.5-.5h2a.5.5,0,0,1,.5.5A.5.5,0,0,1,242.1,393Zm-21.78,0h-2a.5.5,0,0,1-.5-.5.5.5,0,0,1,.5-.5h2a.5.5,0,0,1,.5.5A.5.5,0,0,1,220.32,393Zm-21.78,0h-.61c-.48,0-1,0-1.42-.06a.5.5,0,0,1,.09-1c.44,0,.88.06,1.33.06h.61a.51.51,0,0,1,.5.5A.5.5,0,0,1,198.54,393Zm189.62-10.1-.15,0a.49.49,0,0,1-.32-.63,14.35,14.35,0,0,0,.48-1.85.5.5,0,0,1,.58-.4.5.5,0,0,1,.4.59,15.14,15.14,0,0,1-.51,2A.5.5,0,0,1,388.16,382.88ZM183.3,380.24a.51.51,0,0,1-.5-.44,15.27,15.27,0,0,1-.14-2,.5.5,0,0,1,.5-.51h0a.51.51,0,0,1,.5.5,15.19,15.19,0,0,0,.13,1.91.49.49,0,0,1-.43.56Zm-.21-21.78a.49.49,0,0,1-.5-.45,13.18,13.18,0,0,0-.32-1.88.5.5,0,0,1,.38-.6.49.49,0,0,1,.6.37,15.31,15.31,0,0,1,.33,2,.5.5,0,0,1-.44.55Zm-14.74-13.31h-2a.5.5,0,0,1-.5-.5.5.5,0,0,1,.5-.5h2a.5.5,0,0,1,.5.5A.5.5,0,0,1,168.35,345.15Zm-21.78,0h-2a.5.5,0,0,1-.5-.5.5.5,0,0,1,.5-.5h2a.51.51,0,0,1,.5.5A.5.5,0,0,1,146.57,345.15Zm-21.79,0h-2a.5.5,0,0,1-.5-.5.51.51,0,0,1,.5-.5h2a.5.5,0,0,1,.5.5A.5.5,0,0,1,124.78,345.15Zm-21.78,0h-2a.5.5,0,0,1-.5-.5.5.5,0,0,1,.5-.5h2a.5.5,0,0,1,.5.5A.5.5,0,0,1,103,345.15Zm-21.78,0h-2a.5.5,0,0,1-.5-.5.5.5,0,0,1,.5-.5h2a.51.51,0,0,1,.5.5A.5.5,0,0,1,81.22,345.15ZM61.46,339a.51.51,0,0,1-.4-.2A15,15,0,0,1,60,337a.5.5,0,0,1,.89-.46,12.82,12.82,0,0,0,1,1.62.5.5,0,0,1-.12.7A.48.48,0,0,1,61.46,339Zm-2.74-21.2a.51.51,0,0,1-.5-.5v-2a.5.5,0,0,1,.5-.5.5.5,0,0,1,.5.5v2A.5.5,0,0,1,58.72,317.75Zm0-21.79a.5.5,0,0,1-.5-.5v-2a.51.51,0,0,1,.5-.5.5.5,0,0,1,.5.5v2A.5.5,0,0,1,58.72,296Zm0-21.78a.5.5,0,0,1-.5-.5v-2a.5.5,0,0,1,.5-.5.5.5,0,0,1,.5.5v2A.5.5,0,0,1,58.72,274.18Zm0-21.78a.51.51,0,0,1-.5-.5v-2a.5.5,0,0,1,.5-.5.5.5,0,0,1,.5.5v2A.5.5,0,0,1,58.72,252.4ZM63.52,232a.5.5,0,0,1-.34-.86,16.31,16.31,0,0,1,1.6-1.28.5.5,0,1,1,.57.82,14.13,14.13,0,0,0-1.49,1.19A.5.5,0,0,1,63.52,232Z" transform="translate(43)" style="fill: #fff"/>
            <path d="M388.92,361.12a.5.5,0,0,1-.5-.5v-1a.5.5,0,0,1,1,0v1A.5.5,0,0,1,388.92,361.12Z" transform="translate(43)" style="fill: #fff"/>
          </g>
        </g>
      </g>
      <g>
        <g>
          <path d="M301.19,427.5H273.6a6.61,6.61,0,0,1-6.6-6.6V273h43V418.69A8.8,8.8,0,0,1,301.19,427.5Z" transform="translate(43)" style="fill: #a9a9ff"/>
          <path d="M303.66,427.5H286V273h24V421.16A6.34,6.34,0,0,1,303.66,427.5Z" transform="translate(43)" style="fill: #ccf"/>
        </g>
        <g>
          <path d="M212.32,131H349.85a55.64,55.64,0,0,1,55.65,55.65v97.78a4.07,4.07,0,0,1-4.07,4.07H160a.45.45,0,0,1-.46-.46V183.82A52.82,52.82,0,0,1,212.32,131Z" transform="translate(43)" style="fill: #7969ff"/>
          <path d="M229.32,152.5h104a55.65,55.65,0,0,1,55.65,55.65v76.28a4.07,4.07,0,0,1-4.07,4.07H177a.45.45,0,0,1-.46-.46V205.32A52.82,52.82,0,0,1,229.32,152.5Z" transform="translate(43)" style="fill: #03121e;opacity: 0.07"/>
          <path d="M400.91,289H249V276H405.5v8.41A4.58,4.58,0,0,1,400.91,289Z" transform="translate(43)" style="fill: #ccf;opacity: 0.65"/>
          <path d="M400.91,289H249V276H405.5v8.41A4.58,4.58,0,0,1,400.91,289Z" transform="translate(43)" style="fill: #ccf;opacity: 0.65"/>
          <path d="M402,288.5H332.88V276.38H405.5V285A3.47,3.47,0,0,1,402,288.5Z" transform="translate(43)" style="fill: #a9a9ff"/>
          <rect x="299.5" y="187" width="149" height="89" style="fill: #373449;opacity: 0.07"/>
        </g>
        <g>
          <path d="M250.5,285h-85a6,6,0,0,1-6-6V182.5A48.49,48.49,0,0,1,208,134h0a48.49,48.49,0,0,1,48.5,48.5V279A6,6,0,0,1,250.5,285Z" transform="translate(43)" style="fill: #ccf"/>
          <path d="M249.5,285h-85V183.5A42.5,42.5,0,0,1,207,141h0a42.5,42.5,0,0,1,42.5,42.5Z" transform="translate(43)" style="fill: #373449"/>
          <g style="clip-path: url(#clip-path)">
            <g>
              <path d="M252.91,272H182.5a4.6,4.6,0,0,1-4.61-4.61V225a5.75,5.75,0,0,1,5.75-5.75h66.91a7,7,0,0,1,7,7v41.14A4.6,4.6,0,0,1,252.91,272Z" transform="translate(43)" style="fill: #8f8fff"/>
              <path d="M253.9,272H181.51a3.62,3.62,0,0,1-3.62-3.62v-44a2.25,2.25,0,0,1,.55-1.47h0a1.18,1.18,0,0,1,1.63-.14l27.68,22.91,5.72,4.74a6.56,6.56,0,0,0,8.42-.06l34-28.84a4.5,4.5,0,0,1,1.65,4.05v42.85A3.62,3.62,0,0,1,253.9,272Z" transform="translate(43)" style="fill: #a9a9ff;opacity: 0.56"/>
              <path d="M179.54,272.45a1,1,0,0,1-.67-1.75l29.86-26.56a1,1,0,0,1,1.33,1.5L180.2,272.2A1,1,0,0,1,179.54,272.45Z" transform="translate(43)" style="fill: #8f8fff"/>
              <path d="M254.77,272.45a1,1,0,0,1-.66-.25l-29-25.72a1,1,0,1,1,1.33-1.49l29,25.71a1,1,0,0,1,.08,1.41A1,1,0,0,1,254.77,272.45Z" transform="translate(43)" style="fill: #8f8fff"/>
            </g>
            <path d="M250,285H171v-4.88a8.11,8.11,0,0,1,8.12-8.12H250Z" transform="translate(43)" style="fill: #7969ff"/>
          </g>
        </g>
        <g>
          <path d="M247.09,303H104.24a9.74,9.74,0,0,1-9.74-9.74V285h164v6.59A11.41,11.41,0,0,1,247.09,303Z" transform="translate(43)" style="fill: #7969ff"/>
          <path d="M247.09,303H202.24a9.74,9.74,0,0,1-9.74-9.74V285h66v6.59A11.41,11.41,0,0,1,247.09,303Z" transform="translate(43)" style="fill: #ccf"/>
        </g>
        <g>
          <circle cx="338.5" cy="190" r="14" style="fill: #a9a9ff"/>
          <path d="M295.5,194.5h0A4.49,4.49,0,0,1,291,190V101a4.49,4.49,0,0,1,4.5-4.5h0A4.49,4.49,0,0,1,300,101v89A4.49,4.49,0,0,1,295.5,194.5Z" transform="translate(43)" style="fill: #a9a9ff"/>
          <circle cx="340.5" cy="190" r="12" style="fill: #ccf"/>
          <polygon points="344.5 122.65 344.5 122.65 344.5 101 385.53 101 344.5 122.65" style="fill: #8f8fff"/>
          <polygon points="344.5 122.65 344.5 122.65 344.5 101 385.53 101 344.5 122.65" style="fill: #8f8fff"/>
          <path d="M297.5,194.5h0A4.49,4.49,0,0,1,293,190V101a4.49,4.49,0,0,1,4.5-4.5h0A4.49,4.49,0,0,1,302,101v89A4.49,4.49,0,0,1,297.5,194.5Z" transform="translate(43)" style="fill: #ccf"/>
          <path d="M297.5,197a7.25,7.25,0,1,1,7.25-7.25A7.26,7.26,0,0,1,297.5,197Zm0-13.5a6.25,6.25,0,1,0,6.25,6.25A6.25,6.25,0,0,0,297.5,183.5Z" transform="translate(43)" style="fill: #a9a9ff"/>
        </g>
      </g>
      <g>
        <g>
          <path d="M143.34,192.23H60.5a4.61,4.61,0,0,1-4.61-4.61V137a5.75,5.75,0,0,1,5.75-5.75H141a7,7,0,0,1,7,7v49.37A4.62,4.62,0,0,1,143.34,192.23Z" transform="translate(43)" style="fill: #8f8fff"/>
          <path d="M143.76,192.23H60.07A4.19,4.19,0,0,1,55.89,188V137.13a2.6,2.6,0,0,1,.64-1.7h0a1.35,1.35,0,0,1,1.88-.16l32,26.48L97,167.23a7.58,7.58,0,0,0,9.73-.06L146,133.82c2.46,2.34,1.91,4.68,1.91,4.68V188A4.2,4.2,0,0,1,143.76,192.23Z" transform="translate(43)" style="fill: #a9a9ff;opacity: 0.59"/>
          <path d="M58.72,191.77a1,1,0,0,1-.66-1.75l33.58-29.88A1,1,0,0,1,93,161.63L59.39,191.51A1,1,0,0,1,58.72,191.77Z" transform="translate(43)" style="fill: #8f8fff"/>
          <path d="M144.77,192a1,1,0,0,1-.65-.25l-33.54-29.16a1,1,0,1,1,1.31-1.51l33.54,29.16a1,1,0,0,1,.1,1.42A1,1,0,0,1,144.77,192Z" transform="translate(43)" style="fill: #8f8fff"/>
        </g>
        <g>
          <circle cx="190.46" cy="131.54" r="16.04" style="fill: #7969ff"/>
          <g>
            <path d="M143.9,137.74h-1.75V127.13l-1.79,1.09V126.4l1.79-1.19h1.75Z" transform="translate(43)" style="fill: #fff"/>
            <path d="M147.66,136.93a3.59,3.59,0,0,1-.91-2.62v-5.69a3.22,3.22,0,0,1,3.58-3.56A3.54,3.54,0,0,1,153,126a3.58,3.58,0,0,1,.91,2.63v5.69a3.61,3.61,0,0,1-.91,2.63,3.57,3.57,0,0,1-2.66.93A3.52,3.52,0,0,1,147.66,136.93Zm4-1.22a2,2,0,0,0,.44-1.4v-5.69a2,2,0,0,0-.44-1.4,2.17,2.17,0,0,0-2.75,0,2,2,0,0,0-.44,1.4v5.69a2,2,0,0,0,.44,1.4,2.17,2.17,0,0,0,2.75,0Z" transform="translate(43)" style="fill: #fff"/>
          </g>
        </g>
        <g>
          <path d="M205.72,248.43H98.53a5.63,5.63,0,0,1-5.64-5.64V176.64a6.35,6.35,0,0,1,6.36-6.36h104.1a7.57,7.57,0,0,1,7.58,7.57v65.37A5.21,5.21,0,0,1,205.72,248.43Z" transform="translate(43)" style="fill: #b9b6ff"/>
          <path d="M205.57,248.43H98.25a5.36,5.36,0,0,1-5.36-5.36V177.79a3.3,3.3,0,0,1,.82-2.19h0a1.74,1.74,0,0,1,2.42-.2l41,33.95,8.49,7a9.7,9.7,0,0,0,12.47-.08l50.38-42.77c3.15,3,2.44,6,2.44,6v63.53A5.36,5.36,0,0,1,205.57,248.43Z" transform="translate(43)" style="fill: #7969ff"/>
          <path d="M96,248a1,1,0,0,1-.67-1.75l43.59-38.7a1,1,0,1,1,1.33,1.49L96.66,247.7A1,1,0,0,1,96,248Z" transform="translate(43)" style="fill: #b9b6ff"/>
          <path d="M207,248a1,1,0,0,1-.66-.24L163.2,210.25a1,1,0,1,1,1.31-1.51l43.15,37.55a1,1,0,0,1,.09,1.41A1,1,0,0,1,207,248Z" transform="translate(43)" style="fill: #b9b6ff"/>
        </g>
      </g>
      <g>
        <circle cx="457.96" cy="160.31" r="21.99" style="fill: #a9a9ff"/>
        <circle cx="384.93" cy="129.32" r="35.87" transform="translate(220.32 478.3) rotate(-77.82)" style="fill: #7969ff"/>
        <g>
          <g>
            <g>
              <path d="M384.93,153.13a7.94,7.94,0,0,1-7.9-7l-.07-.56h15.93l-.06.56A8,8,0,0,1,384.93,153.13Zm-6.82-6.59a7,7,0,0,0,13.64,0Z" transform="translate(43)" style="fill: #fff"/>
              <path d="M399.65,138.22H370.2V124.76a14.13,14.13,0,0,1,14.11-14.11h1.23a14.13,14.13,0,0,1,14.11,14.11Zm-28.45-1h27.45V124.76a13.12,13.12,0,0,0-13.11-13.11h-1.23a13.12,13.12,0,0,0-13.11,13.11Z" transform="translate(43)" style="fill: #fff"/>
              <path d="M399.16,146.54H370.7a4.49,4.49,0,0,1-4.49-4.48v-.36a4.49,4.49,0,0,1,4.49-4.48h28.46a4.49,4.49,0,0,1,4.48,4.48v.36A4.49,4.49,0,0,1,399.16,146.54Zm-28.46-8.32a3.49,3.49,0,0,0-3.49,3.48v.36a3.49,3.49,0,0,0,3.49,3.48h28.46a3.48,3.48,0,0,0,3.48-3.48v-.36a3.48,3.48,0,0,0-3.48-3.48Z" transform="translate(43)" style="fill: #fff"/>
            </g>
            <path d="M381.91,134H370.7a.5.5,0,0,1-.5-.5.51.51,0,0,1,.5-.5h11.21a.5.5,0,0,1,.5.5A.5.5,0,0,1,381.91,134Z" transform="translate(43)" style="fill: #fff"/>
          </g>
          <path d="M383.59,134a.46.46,0,0,1-.46-.3.46.46,0,0,1,0-.19.45.45,0,0,1,0-.2.54.54,0,0,1,.1-.16l.17-.11a.51.51,0,0,1,.54.11.42.42,0,0,1,.11.16.45.45,0,0,1,0,.2.46.46,0,0,1,0,.19.42.42,0,0,1-.11.16.64.64,0,0,1-.16.11A.63.63,0,0,1,383.59,134Z" transform="translate(43)" style="fill: #fff"/>
        </g>
        <g>
          <path d="M385.09,107.93a.5.5,0,0,1-.5-.5v-7.34a.5.5,0,0,1,.5-.5.5.5,0,0,1,.5.5v7.34A.5.5,0,0,1,385.09,107.93Z" transform="translate(43)" style="fill: #fff"/>
          <path d="M394.86,110.05a.6.6,0,0,1-.29-.08.52.52,0,0,1-.13-.7l2.06-3a.52.52,0,0,1,.7-.13.5.5,0,0,1,.13.7l-2.06,3A.49.49,0,0,1,394.86,110.05Z" transform="translate(43)" style="fill: #fff"/>
          <path d="M375,110.05a.47.47,0,0,1-.41-.22l-2.07-3a.5.5,0,0,1,.83-.57l2.07,3a.51.51,0,0,1-.14.7A.54.54,0,0,1,375,110.05Z" transform="translate(43)" style="fill: #fff"/>
        </g>
      </g>
    </g>
  </svg>